<?xml version="1.0" encoding="UTF-8" standalone="no"?>
<svg
   xmlns:dc="http://purl.org/dc/elements/1.1/"
   xmlns:cc="http://creativecommons.org/ns#"
   xmlns:rdf="http://www.w3.org/1999/02/22-rdf-syntax-ns#"
   xmlns:svg="http://www.w3.org/2000/svg"
   xmlns="http://www.w3.org/2000/svg"
   xmlns:sodipodi="http://sodipodi.sourceforge.net/DTD/sodipodi-0.dtd"
   xmlns:inkscape="http://www.inkscape.org/namespaces/inkscape"
   version="1.1"
   viewBox="0 0 93.660004 41.672001"
   x="0px"
   y="0px"
   id="svg2"
   inkscape:version="0.91 r13725"
   sodipodi:docname="Bone_noun_71979_cc.svg"
   width="93.660004"
   height="41.672001">
  <metadata
     id="metadata14">
    <rdf:RDF>
      <cc:Work
         rdf:about="">
        <dc:format>image/svg+xml</dc:format>
        <dc:type
           rdf:resource="http://purl.org/dc/dcmitype/StillImage" />
        <dc:title></dc:title>
      </cc:Work>
    </rdf:RDF>
  </metadata>
  <defs
     id="defs12" />
  <sodipodi:namedview
     pagecolor="#ffffff"
     bordercolor="#666666"
     borderopacity="1"
     objecttolerance="10"
     gridtolerance="10"
     guidetolerance="10"
     inkscape:pageopacity="0"
     inkscape:pageshadow="2"
     inkscape:window-width="660"
     inkscape:window-height="480"
     id="namedview10"
     showgrid="false"
     fit-margin-top="0"
     fit-margin-left="0"
     fit-margin-right="0"
     fit-margin-bottom="0"
     inkscape:zoom="1.9666667"
     inkscape:cx="122.84895"
     inkscape:cy="8.836"
     inkscape:window-x="1990"
     inkscape:window-y="275"
     inkscape:window-maximized="0"
     inkscape:current-layer="svg2" />
  <path
     d="m 80.832,41.672 c -5.596,0 -10.484,-3.628 -12.18,-8.836 l -43.64,0 c -1.7,5.208 -6.584,8.836 -12.18,8.836 C 5.752,41.672 0,35.916 0,28.836 0,25.928 1.02,23.1 2.844,20.836 1.02,18.568 0,15.744 0,12.836 0,5.756 5.756,0 12.832,0 c 5.596,0 10.48,3.628 12.18,8.836 l 43.64,0 C 70.356,3.628 75.236,0 80.832,0 87.908,0 93.66,5.756 93.66,12.836 c 0,2.908 -1.016,5.732 -2.844,8 1.828,2.264 2.844,5.092 2.844,8 0,7.08 -5.752,12.836 -12.828,12.836 z"
     id="path4"
     inkscape:connector-curvature="0"
     style="fill:#000000" />
</svg>
