<?xml version="1.0" encoding="iso-8859-1"?>
<!-- Uploaded to: SVG Repo, www.svgrepo.com, Generator: SVG Repo Mixer Tools -->
<svg fill="#000000" height="800px" width="800px" version="1.1" id="Capa_1" xmlns="http://www.w3.org/2000/svg" xmlns:xlink="http://www.w3.org/1999/xlink" 
	 viewBox="0 0 437.485 437.485" xml:space="preserve">
<path id="XMLID_153_" d="M59.971,128.54c3.16-32.272,19.063-60.106,39.571-69.263c4.792-2.138,10.409,0.012,12.547,4.802
	c2.139,4.791-0.011,10.409-4.802,12.548c-12.026,5.369-25.645,25.561-28.407,53.765c-0.48,4.907-4.614,8.575-9.443,8.575
	c-0.31,0-0.622-0.016-0.937-0.046C63.278,138.409,59.46,133.762,59.971,128.54z M78.199,323.46c0,5.247-4.253,9.5-9.5,9.5H29.552
	c-2.862,0-5.571-1.29-7.375-3.513c-1.804-2.222-2.51-5.139-1.922-7.939c4.525-21.552,13.878-39.795,27.312-53.485
	c-23.72-17.241-40.347-44.39-47.364-77.799c-0.588-2.802,0.118-5.719,1.922-7.94c1.804-2.223,4.513-3.513,7.375-3.513h6.168
	c-1.741-13.018-1.897-26.986-0.458-41.678c5.647-57.68,33.495-107.195,69.315-123.289c14.722-7.142,32.259-7.142,46.98,0.001
	c35.821,16.094,63.666,65.608,69.313,123.288c1.439,14.692,1.282,28.66-0.459,41.678h6.171c2.862,0,5.572,1.291,7.376,3.513
	c1.804,2.223,2.51,5.14,1.921,7.941c-2.146,10.211-5.203,19.935-9.087,28.901c-2.085,4.814-7.679,7.024-12.493,4.942
	c-4.815-2.086-7.027-7.679-4.942-12.493c1.902-4.394,3.58-9.009,5.019-13.805h-5.053c-0.131,0.002-0.26,0.002-0.391,0H27.146
	c-0.13,0.002-0.261,0.002-0.391,0h-5.042c8.261,27.414,24.389,48.722,46.191,60.7c2.826,1.553,4.672,4.434,4.901,7.651
	c0.229,3.217-1.189,6.33-3.767,8.269c-12.406,9.326-21.657,22.865-27.133,39.569h26.795C73.946,313.96,78.199,318.213,78.199,323.46
	z M34.861,178.771h146.303c1.883-12.259,2.135-25.619,0.744-39.826c-4.933-50.385-28.906-94.737-58.299-107.857
	c-0.102-0.045-0.202-0.092-0.302-0.141c-9.433-4.614-21.154-4.615-30.588,0c-0.1,0.049-0.2,0.096-0.301,0.141
	C63.026,44.207,39.052,88.56,34.119,138.945C32.728,153.152,32.979,166.511,34.861,178.771z M434.833,157.699
	c2.4,2.576,3.179,6.268,2.023,9.594c-11.602,33.403-42.117,59.07-79.639,66.986c-7.977,1.682-15.988,2.503-23.892,2.503
	c-27.518,0-53.722-9.944-72.53-28.064l-16.371,17.833c-3.547,3.865-9.555,4.123-13.423,0.574c-3.864-3.548-4.122-9.558-0.573-13.423
	l17.063-18.588c-11.642-46.725,2.729-98.965,38.191-137.599c36.8-40.087,90.133-58.803,139.188-48.832
	c3.45,0.7,6.229,3.252,7.223,6.63c11.976,40.733,3.661,86.291-21.591,123.646C419.689,143.97,427.965,150.329,434.833,157.699z
	 M381.331,145.314c2.495-2.718,4.87-5.509,7.127-8.368c0.091-0.122,0.185-0.241,0.281-0.357
	c25.458-32.466,35.416-73.39,26.621-110.294c-40.968-6.131-84.804,10.434-115.681,44.07c-27.914,30.41-41.019,70.185-36.179,107.311
	l24.676-26.88l-5.688-25.934c-1.124-5.125,2.119-10.19,7.244-11.314c5.128-1.127,10.19,2.119,11.314,7.244l2.83,12.9l27.668-30.141
	l-5.688-25.932c-1.124-5.125,2.119-10.191,7.244-11.315c5.126-1.124,10.19,2.119,11.314,7.244l2.83,12.9l18.718-20.391
	c3.547-3.862,9.556-4.123,13.422-0.573c3.865,3.548,4.123,9.558,0.574,13.423l-18.718,20.39l13.097,1.719
	c5.202,0.682,8.866,5.452,8.184,10.654c-0.682,5.202-5.449,8.875-10.654,8.184l-26.326-3.453l-27.668,30.141l13.096,1.718
	c5.202,0.682,8.866,5.452,8.184,10.654c-0.682,5.202-5.447,8.875-10.654,8.184l-26.326-3.452l-24.675,26.88
	C314.945,192.194,353.414,175.727,381.331,145.314z M416.761,166.529c-5.268-4.802-11.348-8.948-17.972-12.258
	c-1.131,1.312-2.284,2.609-3.462,3.892c-27.363,29.809-63.879,47.798-100.971,50.965c17.414,8.387,38.272,10.922,58.939,6.56
	C382.22,209.586,406.021,190.999,416.761,166.529z M369.367,320.454c4.926,12.38,4.512,26.945-1.112,39.026
	c-18.411,42.262-119.275,68.547-154.563,71.408c-4.535,0.368-9,0.551-13.367,0.551c-42.463,0.002-76.602-17.21-94.891-48.311
	c-18.41-31.308-17.276-71.055,2.888-101.262c22.093-33.095,62.479-48.232,110.806-41.513l0-0.001
	C254.194,245.223,353.395,277.212,369.367,320.454z M351.681,327.398c-0.038-0.094-0.074-0.188-0.108-0.284
	c-4.859-13.315-25.67-29.14-57.096-43.413c-29.85-13.559-61.337-22.219-77.961-24.526c0,0,0,0,0,0
	c-7.161-0.995-13.833-1.448-20.042-1.448c-42.258,0-63.182,20.961-72.347,34.69c-16.146,24.188-17.054,56.014-2.313,81.081
	c9.598,16.322,34.103,43.022,90.343,38.454c16.729-1.356,48.66-8.207,79.234-20.042c32.188-12.46,53.867-27.071,59.477-40.088
	c0.041-0.094,0.082-0.186,0.125-0.278C354.445,344.189,354.709,334.937,351.681,327.398z M271.466,324.235
	c3.681,8.23,3.405,17.883-0.738,25.892c-8.655,17.785-33.411,31.035-61.675,32.99c-2.297,0.159-4.558,0.237-6.772,0.237
	c-24.083,0.001-43.144-9.3-52.905-26.05c-8.624-14.8-8.108-32.866,1.345-47.15c11.684-17.653,33.94-25.801,61.05-22.368
	C239.875,291.349,263.835,305.987,271.466,324.235z M254.098,331.939c-0.046-0.101-0.09-0.202-0.132-0.304
	c-4.188-10.146-20.847-21.99-44.584-25c-3.274-0.415-6.438-0.62-9.467-0.62c-15.176,0-27.063,5.127-33.349,14.625
	c-5.433,8.209-5.729,18.593-0.773,27.098c6.879,11.806,22.163,17.796,41.949,16.424c23.872-1.651,41.178-12.527,45.935-22.417
	c0.049-0.1,0.099-0.198,0.149-0.297C255.344,338.555,255.448,334.911,254.098,331.939z"/>
</svg>